<?xml version="1.0" encoding="UTF-8"?>
<!-- Art Gene Preview — renderer v1.0.0 -->
<svg xmlns="http://www.w3.org/2000/svg" width="192" height="160" viewBox="0 0 192 160" role="img" aria-label="Art gene projection preview: 24x20 canvas, 40 cells">
  <title>Art Gene Projection Preview</title>
  <desc>Deterministic preview of 40 projected cells on a 24x20 canvas.</desc>
  <rect width="192" height="160" fill="#1a1a2e"/>
  <rect x="40" y="24" width="8" height="8" fill="#6E7693" data-role="rim-highlight" data-x="5" data-y="3"/>
  <rect x="48" y="24" width="8" height="8" fill="#6E7693" data-role="rim-highlight" data-x="6" data-y="3"/>
  <rect x="56" y="24" width="8" height="8" fill="#6E7693" data-role="rim-highlight" data-x="7" data-y="3"/>
  <rect x="64" y="24" width="8" height="8" fill="#6E7693" data-role="rim-highlight" data-x="8" data-y="3"/>
  <rect x="72" y="24" width="8" height="8" fill="#6E7693" data-role="rim-highlight" data-x="9" data-y="3"/>
  <rect x="80" y="24" width="8" height="8" fill="#6E7693" data-role="rim-highlight" data-x="10" data-y="3"/>
  <rect x="88" y="24" width="8" height="8" fill="#6E7693" data-role="rim-highlight" data-x="11" data-y="3"/>
  <rect x="96" y="24" width="8" height="8" fill="#6E7693" data-role="rim-highlight" data-x="12" data-y="3"/>
  <rect x="104" y="24" width="8" height="8" fill="#6E7693" data-role="rim-highlight" data-x="13" data-y="3"/>
  <rect x="112" y="24" width="8" height="8" fill="#6E7693" data-role="rim-highlight" data-x="14" data-y="3"/>
  <rect x="120" y="24" width="8" height="8" fill="#6E7693" data-role="rim-highlight" data-x="15" data-y="3"/>
  <rect x="128" y="24" width="8" height="8" fill="#6E7693" data-role="rim-highlight" data-x="16" data-y="3"/>
  <rect x="136" y="24" width="8" height="8" fill="#6E7693" data-role="rim-highlight" data-x="17" data-y="3"/>
  <rect x="144" y="24" width="8" height="8" fill="#6E7693" data-role="rim-highlight" data-x="18" data-y="3"/>
  <rect x="56" y="32" width="8" height="8" fill="#383D55" data-role="rim-band-fill" data-x="7" data-y="4"/>
  <rect x="136" y="32" width="8" height="8" fill="#383D55" data-role="rim-band-fill" data-x="17" data-y="4"/>
  <rect x="32" y="40" width="8" height="8" fill="#383D55" data-role="rim-band-fill" data-x="4" data-y="5"/>
  <rect x="40" y="40" width="8" height="8" fill="#383D55" data-role="rim-band-fill" data-x="5" data-y="5"/>
  <rect x="48" y="40" width="8" height="8" fill="#383D55" data-role="rim-band-fill" data-x="6" data-y="5"/>
  <rect x="72" y="40" width="8" height="8" fill="#0E1020" data-role="coal-bed-fill" data-x="9" data-y="5"/>
  <rect x="80" y="40" width="8" height="8" fill="#0E1020" data-role="coal-bed-fill" data-x="10" data-y="5"/>
  <rect x="88" y="40" width="8" height="8" fill="#0E1020" data-role="coal-bed-fill" data-x="11" data-y="5"/>
  <rect x="96" y="40" width="8" height="8" fill="#0E1020" data-role="coal-bed-fill" data-x="12" data-y="5"/>
  <rect x="104" y="40" width="8" height="8" fill="#0E1020" data-role="coal-bed-fill" data-x="13" data-y="5"/>
  <rect x="112" y="40" width="8" height="8" fill="#0E1020" data-role="coal-bed-fill" data-x="14" data-y="5"/>
  <rect x="120" y="40" width="8" height="8" fill="#0E1020" data-role="coal-bed-fill" data-x="15" data-y="5"/>
  <rect x="144" y="40" width="8" height="8" fill="#383D55" data-role="rim-band-fill" data-x="18" data-y="5"/>
  <rect x="152" y="40" width="8" height="8" fill="#383D55" data-role="rim-band-fill" data-x="19" data-y="5"/>
  <rect x="160" y="40" width="8" height="8" fill="#383D55" data-role="rim-band-fill" data-x="20" data-y="5"/>
  <rect x="56" y="48" width="8" height="8" fill="#383D55" data-role="rim-band-fill" data-x="7" data-y="6"/>
  <rect x="136" y="48" width="8" height="8" fill="#383D55" data-role="rim-band-fill" data-x="17" data-y="6"/>
  <rect x="64" y="152" width="8" height="8" fill="#6E7693" data-role="base-highlight" data-x="8" data-y="19"/>
  <rect x="72" y="152" width="8" height="8" fill="#6E7693" data-role="base-highlight" data-x="9" data-y="19"/>
  <rect x="80" y="152" width="8" height="8" fill="#6E7693" data-role="base-highlight" data-x="10" data-y="19"/>
  <rect x="88" y="152" width="8" height="8" fill="#6E7693" data-role="base-highlight" data-x="11" data-y="19"/>
  <rect x="96" y="152" width="8" height="8" fill="#6E7693" data-role="base-highlight" data-x="12" data-y="19"/>
  <rect x="104" y="152" width="8" height="8" fill="#6E7693" data-role="base-highlight" data-x="13" data-y="19"/>
  <rect x="112" y="152" width="8" height="8" fill="#6E7693" data-role="base-highlight" data-x="14" data-y="19"/>
  <rect x="120" y="152" width="8" height="8" fill="#6E7693" data-role="base-highlight" data-x="15" data-y="19"/>
  <rect x="128" y="152" width="8" height="8" fill="#6E7693" data-role="base-highlight" data-x="16" data-y="19"/>
</svg>